<svg id="Capa_1" enable-background="new 0 0 512 512" height="512" viewBox="0 0 512 512" width="512" xmlns="http://www.w3.org/2000/svg"><g><path d="m480.926 354.51-183.481 11.521-183.482-11.521v-146.545l183.482-38.235 183.481 38.235z" fill="#a0bce7"/><path d="m164.252 357.668 81.242 5.101 168.708-168.708-71.453-14.89z" fill="#8ea3e2"/><path d="m227.162 403.13-78.757-9.72c-37.35-4.61-65.515-36.466-65.515-74.099v-71.578-145.415h-57.924v145.415 71.578c0 66.83 50.017 123.4 116.344 131.587l78.761 9.721z" fill="#a0bce7"/><path d="m82.89 319.311v-71.578-30.476h-57.924v30.476 71.578c0 10.612 1.266 20.963 3.653 30.905h60.999c-4.319-9.458-6.728-19.932-6.728-30.905z" fill="#8ea3e2"/><path d="m24.966 102.318h57.924v30.905h-57.924z" fill="#8ea3e2"/><path d="m349.951 364.36h-105.012c-24.323 0-44.04 19.717-44.04 44.04v27.694c0 24.323 19.717 44.04 44.04 44.04h105.011c24.323 0 44.04-19.717 44.04-44.04v-27.694c0-24.323-19.717-44.04-44.039-44.04z" fill="#f7ef87"/><path d="m349.951 364.36h-105.012c-24.323 0-44.04 19.717-44.04 44.04v22.63l22.479 2.774c4.02.496 8.102.747 12.131.747 22.822-.001 44.481-7.82 61.936-22.195 17.455 14.377 39.111 22.196 61.933 22.196 4.034 0 8.118-.251 12.137-.748l22.476-2.774v-22.63c-.001-24.323-19.718-44.04-44.04-44.04z" fill="#efd176"/><path d="m359.378 403.646c-17.661 0-34.52-6.928-47.222-19.631l-10.55-10.55c-2.294-2.294-6.026-2.294-8.32 0l-10.55 10.55c-14.694 14.694-34.952 21.659-55.573 19.116l-78.757-9.72c-37.35-4.61-65.515-36.466-65.515-74.099v-71.578c0-35.461 25.238-66.249 60.01-73.208l117.196-23.455c24.784-4.959 49.916-4.959 74.699 0l117.196 23.454c34.772 6.96 60.01 37.748 60.01 73.209v71.578c0 37.633-28.165 69.489-65.515 74.099l-78.756 9.72c-2.797.344-5.585.515-8.353.515zm-61.933-83.366c14.692 0 29.383 5.593 40.568 16.777l10.55 10.55c3.4 3.4 8.088 5.015 12.859 4.423l78.756-9.72c11.592-1.431 20.334-11.318 20.334-22.999v-71.578c0-11.006-7.833-20.562-18.625-22.721l-117.197-23.454c-18.079-3.619-36.412-3.619-54.491 0l-117.196 23.454c-10.792 2.16-18.625 11.715-18.625 22.721v71.578c0 11.68 8.742 21.568 20.334 22.999l78.756 9.72c4.777.59 9.459-1.023 12.859-4.423l10.55-10.55c11.185-11.185 25.876-16.777 40.568-16.777z" fill="#f3be77"/><path d="m366.534 351.399-5.112.631c-4.771.592-9.459-1.023-12.859-4.423l-10.55-10.55c-11.184-11.184-25.876-16.777-40.568-16.777s-29.383 5.593-40.568 16.777l-10.55 10.55c-3.4 3.4-8.082 5.013-12.859 4.423l-78.756-9.72c-11.592-1.431-20.334-11.318-20.334-22.999v-71.578c0-11.006 7.833-20.562 18.625-22.722l77.26-15.462c-10.526-10.495-16.615-31.933-6.615-51.186l-80.748 16.161c-34.772 6.959-60.01 37.747-60.01 73.208v71.578c0 37.633 28.165 69.489 65.515 74.099l78.757 9.72c20.621 2.544 40.879-4.422 55.573-19.116l10.55-10.55c2.294-2.294 6.026-2.294 8.32 0l10.55 10.55c12.703 12.703 29.562 19.631 47.222 19.631 2.768 0 5.556-.17 8.351-.515l13.565-1.674c-18.153-8.249-21.778-36.266-14.759-50.056z" fill="#f19a60"/><path d="m85.331 102.318h-62.807c-12.44 0-22.524-10.084-22.524-22.524v-25.403c0-12.44 10.084-22.524 22.524-22.524h62.807c12.44 0 22.524 10.084 22.524 22.524v25.403c0 12.44-10.084 22.524-22.524 22.524z" fill="#f7ef87"/><path d="m314.405 440.605h-33.919c-4.142 0-7.5-3.358-7.5-7.5s3.358-7.5 7.5-7.5h33.919c4.142 0 7.5 3.358 7.5 7.5s-3.358 7.5-7.5 7.5z" fill="#f19a60"/><path d="m12.756 319.311h70.134v-71.148h-70.134c-5.902 0-10.687 4.785-10.687 10.687v49.774c-.001 5.902 4.784 10.687 10.687 10.687z" fill="#f7ef87"/><g><g fill="#fff"><ellipse cx="216.703" cy="284.587" rx="29.792" ry="23.725"/><ellipse cx="378.187" cy="284.587" rx="29.792" ry="23.725"/></g><g fill="#616a84"><path d="m248.246 266.27c-4.142 0-7.5-3.358-7.5-7.5 0-3.684-2.997-6.681-6.681-6.681s-6.68 2.997-6.68 6.681c0 4.142-3.358 7.5-7.5 7.5s-7.5-3.358-7.5-7.5c0-11.955 9.726-21.681 21.68-21.681 11.955 0 21.681 9.726 21.681 21.681 0 4.142-3.358 7.5-7.5 7.5z"/><path d="m375.005 266.27c-4.142 0-7.5-3.358-7.5-7.5 0-3.684-2.997-6.681-6.681-6.681s-6.681 2.997-6.681 6.681c0 4.142-3.358 7.5-7.5 7.5s-7.5-3.358-7.5-7.5c0-11.955 9.726-21.681 21.681-21.681s21.681 9.726 21.681 21.681c0 4.142-3.358 7.5-7.5 7.5z"/><path d="m297.445 289.696c-7.932 0-15.476-3.435-20.696-9.425-2.722-3.123-2.397-7.86.726-10.582 3.122-2.722 7.859-2.397 10.581.726 2.371 2.72 5.793 4.28 9.388 4.28s7.017-1.56 9.388-4.28c2.722-3.123 7.458-3.448 10.582-.726 3.122 2.721 3.448 7.459.726 10.582-5.22 5.99-12.763 9.425-20.695 9.425z"/></g></g></g></svg>